<svg width="520" height="520" viewBox="0 0 520 520" fill="none" xmlns="http://www.w3.org/2000/svg">
<rect width="520" height="520" fill="url(#paint0_linear_219_60)"/>
<path d="M232.577 402.5C235.356 407.314 239.354 411.311 244.167 414.09C248.981 416.869 254.442 418.332 260 418.332C265.558 418.332 271.019 416.869 275.833 414.09C280.646 411.311 284.644 407.314 287.423 402.5" fill="url(#paint1_linear_219_60)"/>
<path d="M232.577 402.5C235.356 407.314 239.354 411.311 244.167 414.09C248.981 416.869 254.442 418.332 260 418.332C265.558 418.332 271.019 416.869 275.833 414.09C280.646 411.311 284.644 407.314 287.423 402.5" stroke="white" stroke-width="30" stroke-linecap="round" stroke-linejoin="round"/>
<path d="M121.648 312.662C119.58 314.929 118.215 317.748 117.719 320.777C117.224 323.805 117.619 326.912 118.857 329.72C120.095 332.528 122.122 334.916 124.692 336.593C127.262 338.27 130.265 339.164 133.333 339.167H386.667C389.735 339.168 392.738 338.277 395.31 336.603C397.881 334.929 399.911 332.544 401.152 329.738C402.394 326.932 402.793 323.825 402.301 320.797C401.81 317.768 400.448 314.947 398.383 312.677C377.325 290.97 355 267.901 355 196.667C355 171.471 344.991 147.307 327.175 129.491C309.359 111.676 285.196 101.667 260 101.667C234.804 101.667 210.641 111.676 192.825 129.491C175.009 147.307 165 171.471 165 196.667C165 267.901 142.659 290.97 121.648 312.662Z" fill="url(#paint2_linear_219_60)" stroke="white" stroke-width="30" stroke-linecap="round" stroke-linejoin="round"/>
<defs>
<linearGradient id="paint0_linear_219_60" x1="260" y1="0" x2="260" y2="520" gradientUnits="userSpaceOnUse">
<stop stop-color="#5555FF"/>
<stop offset="1" stop-color="#3F3FFF"/>
</linearGradient>
<linearGradient id="paint1_linear_219_60" x1="260" y1="402.5" x2="260" y2="418.332" gradientUnits="userSpaceOnUse">
<stop stop-color="#5555FF"/>
<stop offset="1" stop-color="#3F3FFF"/>
</linearGradient>
<linearGradient id="paint2_linear_219_60" x1="260.009" y1="101.667" x2="260.009" y2="339.167" gradientUnits="userSpaceOnUse">
<stop stop-color="#5555FF"/>
<stop offset="1" stop-color="#3F3FFF"/>
</linearGradient>
</defs>
</svg>
