<svg width="520" height="520" viewBox="0 0 520 520" fill="none" xmlns="http://www.w3.org/2000/svg">
<rect width="520" height="520" fill="url(#paint0_linear_258_7)"/>
<path d="M385.5 275.125C385.5 353.25 330.812 392.312 265.813 414.969C262.409 416.122 258.712 416.067 255.344 414.812C190.188 392.312 135.5 353.25 135.5 275.125V165.75C135.5 161.606 137.146 157.632 140.076 154.701C143.007 151.771 146.981 150.125 151.125 150.125C182.375 150.125 221.437 131.375 248.625 107.625C251.935 104.797 256.146 103.243 260.5 103.243C264.854 103.243 269.065 104.797 272.375 107.625C299.719 131.531 338.625 150.125 369.875 150.125C374.019 150.125 377.993 151.771 380.924 154.701C383.854 157.632 385.5 161.606 385.5 165.75V275.125Z" stroke="white" stroke-width="30" stroke-linecap="round" stroke-linejoin="round"/>
<defs>
<linearGradient id="paint0_linear_258_7" x1="260" y1="0" x2="260" y2="520" gradientUnits="userSpaceOnUse">
<stop stop-color="#D9D9D9"/>
<stop offset="1" stop-color="#9B9A9A"/>
</linearGradient>
</defs>
</svg>
