<!--WebDeskAccentSupported-->
<svg width="520" height="520" viewBox="0 0 520 520" fill="none" xmlns="http://www.w3.org/2000/svg">
<rect width="520" height="520" fill="white"/>
<path d="M90 165C90 148.431 103.431 135 120 135H205.911C212.725 135 219.336 137.32 224.656 141.578L240.625 154.358C245.945 158.616 252.556 160.935 259.37 160.935H400C416.569 160.935 430 174.367 430 190.935V355C430 371.569 416.569 385 400 385H120C103.431 385 90 371.569 90 355V165Z" fill="#CCCCCC"/>
<path d="M90 218.333C90 201.765 103.431 188.333 120 188.333H206.622C213.972 188.333 221.065 185.636 226.557 180.752L240.318 168.516C245.81 163.633 252.903 160.935 260.253 160.935H400C416.569 160.935 430 174.367 430 190.935V355C430 371.568 416.569 385 400 385H120C103.431 385 90 371.568 90 355V218.333Z" fill="url(#paint0_linear_248_2)"/>
<defs>
<linearGradient id="paint0_linear_248_2" x1="260" y1="121.667" x2="260" y2="385" gradientUnits="userSpaceOnUse">
<stop stop-color="#00DEFF"/>
<stop offset="1" stop-color="#006CFF"/>
</linearGradient>
</defs>
</svg>
